<svg id="eXF3rVKwvpO1" xmlns="http://www.w3.org/2000/svg" xmlns:xlink="http://www.w3.org/1999/xlink" viewBox="0 0 500 462" shape-rendering="geometricPrecision" text-rendering="geometricPrecision"><g><path d="M332.114948,249.586207l-31.257877-58.034483c-15.628939-30.850575-53.518649-39.26394-69.399668-8.539802l25.952668,42.077332l38.405407,69.129137" transform="matrix(1 0 0-1-34 525)" fill="#7510f7"/><path d="M430.426015,144.770115c-25.460046,0-48.903454,13.908046-61.129317,36.413793l-37.18175,68.402299-31.257877-58.034483c-15.628939-30.850575-59.490799-34.896552-75.371818-4.172414l-32.770355,63.344828-27.788105,60.045646h58.483278l38.122573-79.1376l34.282834,62.586207c15.376859,28.068965,55.709604,28.195402,71.086463.126437l48.021175-86.988506c8.696748-15.804598,32.518275-9.609196,32.518275,8.344827l.12604,115.689656c0,42.988505-34.913032,78.011494-77.766574,78.011494h-239.349634c-42.853542,0-77.766575-35.022989-77.766575-78.011494v-200.528736c0-42.988506,34.913033-78.011494,77.766575-78.011494h321.149483v-52.850575h-321.149483C58.482481,0,0,58.666667,0,130.862069v200.275862C0,403.45977,58.356441,462,130.451223,462h239.097554C441.643559,462,500,403.45977,500,331.137931v-107.977011-8.597702C500,176,468.868162,144.770115,430.426015,144.770115Z" transform="matrix(1 0 0-1 0 462)" fill="#7510f7"/></g><rect width="94.786834" height="50" rx="0" ry="0" transform="matrix(.644964 0 0 1.046662 166.890356 308.889373)" fill="#7510f7" stroke-width="0"/></svg>