<svg id="esNu0m64Ajv1" xmlns="http://www.w3.org/2000/svg" xmlns:xlink="http://www.w3.org/1999/xlink" viewBox="0 0 217 237" shape-rendering="geometricPrecision" text-rendering="geometricPrecision"><defs><circle id="esNu0m64Ajv2" r="108"/><path id="esNu0m64Ajv3" d="M0,144L0,0h237.6v144h-10.8c0,59.646753-48.353247,108-108,108s-108-48.353247-108-108v0L0,144Z"/><path id="esNu0m64Ajv4" d="M90,0c27.835151,0,50.4,22.564849,50.4,50.4l.000938,5.549483C145.50836,56.806809,149.4,61.248934,149.4,66.6v12.6c0,5.447186-4.032704,9.952483-9.275454,10.693232-1.859578,17.824833-13.010546,32.886363-28.523679,40.256212L111.6,146.7h3.6c35.788052,0,64.8,29.011948,64.8,64.8v8.1h-180v-8.1c0-35.788052,29.011948-64.8,64.8-64.8h3.6l.000131-16.550082c-15.513653-7.369678-26.665059-22.431471-28.52549-40.256649C34.632704,89.152483,30.6,84.647186,30.6,79.2v-12.6c0-5.351416,3.892149-9.793771,9.000064-10.650686L39.6,50.4C39.6,22.564849,62.164849,0,90,0Z"/><path id="esNu0m64Ajv5" d="M140.401336,11.763947C156.691257,13.586941,169.2,18.597407,169.2,31.569231l-.005805-.3896C192.467264,41.00995,208.8,64.047385,208.8,90.899536L208.8,99h-180v-8.100464c0-26.852151,16.332736-49.889586,39.605805-59.719905.24676-12.683174,12.667653-17.61127,28.79386-19.415796L97.2,28.8c0,11.929351,9.670649,21.6,21.6,21.6s21.6-9.670649,21.6-21.6v0Z"/><path id="esNu0m64Ajv6" d="M31.60606,13.61527C32.558141,22.157822,39.803389,28.8,48.6,28.8c8.823785,0,16.086607-6.683278,17.002583-15.263951C65.676302,12.845471,64.905069,11.7,63.93849,11.7c-13.404612,0-23.674361,0-30.560348,0-.972187,0-1.867337,1.060599-1.772082,1.91527Z"/><rect id="esNu0m64Ajv7" width="237.6" height="252" rx="0" ry="0"/><path id="esNu0m64Ajv8" d="M118.134982,20.928368c-2.483796-2.538009-5.367661-4.692221-8.172655-6.852473-.618917-.476197-1.247768-.94092-1.852838-1.435235-.13757-.112331-1.54669-1.121495-1.715267-1.492911-.405788-.893512-.170684-.197786-.114692-1.264022.070742-1.34827,2.820046-5.15634.768529-6.02962-.902487-.384098-2.512394.63805-3.378156.975646-1.693291.660698-3.407354,1.224163-5.157842,1.710023.838669-1.671069,2.437738-5.016228-.567742-4.120904-2.341409.697537-4.523272,2.490902-6.87612,3.33459.778463-1.276101,3.891712-5.230321,1.078589-5.451359-.875394-.068848-3.422707,1.573233-4.365231,1.923512-2.823056,1.049325-5.70662,1.727536-8.670558,2.261711C69.032827,6.30364,57.247515,5.785772,47.92312,10.374117c-7.188588,3.537208-14.286868,9.025708-18.439573,16.014668-4.00249,6.736518-5.499511,14.108973-6.337276,21.828384-.614703,5.665149-.664674,11.52114-.377191,17.206823.093922,1.862816.303438,10.449771,3.009695,7.849255c1.348312-1.295728,1.338378-6.527861,1.67794-8.29888.675811-3.52362,1.326336-7.062941,2.45309-10.473928c1.985592-6.010898,4.327904-8.813746,9.274424-12.953674c3.174358-2.656379,5.403483-6.246733,8.441173-8.926664c1.364568-1.203629.323306-1.078314,2.51721-.920387c1.473842.105989,2.954305.146453,4.431157.185104c3.416386.088777,6.83819.06613,10.255479.078209c6.882141.024761,13.732071.121993,20.607589-.23825c3.055451-.160041,6.119331-.246705,9.166655-.529343c1.702322-.157927,4.722854-1.248924,6.124147-.415201c1.282387.762762,2.614142,3.253362,3.534992,4.273397c2.175541,2.410579,4.769514,4.251655,7.313516,6.228312c5.304745,4.121509,7.983006,5.69808,9.594117,12.138975c1.60509,6.41704,1.155051,12.370418,3.141847,18.685394.349495,1.110322,1.273957,3.024171,2.413656,1.308713.211623-.318572.156836-2.069899.156836-3.077619c0-4.067771,1.030124-7.119865,1.0173-11.214197-.050694-12.448774-.45317-28.68146-9.764921-38.19484Z"/></defs><g transform="translate(-5.414877 0)"><g transform="translate(-5.538623-16.925264)"><g transform="translate(10.8 36)"><use width="216" height="216" xlink:href="#esNu0m64Ajv2" transform="translate(108 108)" fill="#7510f7" fill-rule="evenodd"/><g mask="url(#esNu0m64Ajv16)"><g><rect width="216.445" height="216" rx="0" ry="0" fill="#7510f7" fill-rule="evenodd"/></g><mask id="esNu0m64Ajv16" mask-type="luminance"><use width="216" height="216" xlink:href="#esNu0m64Ajv2" transform="translate(108 108)" fill="#fff" fill-rule="evenodd"/></mask></g></g><g mask="url(#esNu0m64Ajv74)"><g><g transform="translate(28.8 32.4)"><use width="180" height="219.600006" xlink:href="#esNu0m64Ajv4" fill="#d0c6ac" fill-rule="evenodd"/><g mask="url(#esNu0m64Ajv27)"><g><g transform="translate(-28.8 0)"><rect width="238.384" height="220.355" rx="0" ry="0" fill="#e4bb8e" fill-rule="evenodd"/></g></g><path d="M39.6,84.6C39.6,112.435151,62.164849,135,90,135s50.4-22.564849,50.4-50.4v0v7.2c0,27.835151-22.564849,50.4-50.4,50.4s-50.4-22.564849-50.4-50.4Z" fill-opacity="0.1" fill-rule="evenodd"/><mask id="esNu0m64Ajv27" mask-type="luminance"><use width="180" height="219.600006" xlink:href="#esNu0m64Ajv4" fill="#fff" fill-rule="evenodd"/></mask></g></g><g transform="translate(0 153)"><use width="180" height="87.236168" xlink:href="#esNu0m64Ajv5" fill="#b7c1db" fill-rule="evenodd"/><g mask="url(#esNu0m64Ajv36)"><g><rect width="238.491" height="99" rx="0" ry="0" fill="#59c689" fill-rule="evenodd"/></g><path d="M91.799792,55.565057L91.8,99h-6.3l-.001028-46.665375c1.983616,1.179016,4.092607,2.259849,6.30082,3.230432Zm60.301687-3.2307L152.1,88.65c0,1.739697-1.410303,3.15-3.15,3.15s-3.15-1.410303-3.15-3.15l.00121-33.085384c2.208017-.970543,4.316822-2.051317,6.300269-3.230259Z" fill="#f4f4f4" fill-rule="evenodd"/><path d="M155.733313,11.451433C169.280438,14.013416,178.65,19.117967,178.65,29.076923C178.65,46.818009,148.916087,61.2,118.8,61.2s-59.85-14.381991-59.85-32.123077c0-9.958956,9.369562-15.063507,22.916687-17.62549C73.689147,14.465504,68.4,19.534193,68.4,27.969231C68.4,46.322078,93.439084,61.2,118.8,61.2s50.4-14.877922,50.4-33.230769c0-8.258781-5.070415-13.290429-12.958884-16.326959Z" fill-opacity="0.16" fill-rule="evenodd"/><mask id="esNu0m64Ajv36" mask-type="luminance"><use width="180" height="87.236168" xlink:href="#esNu0m64Ajv5" fill="#fff" fill-rule="evenodd"/></mask></g></g><g transform="translate(67.708996 74.491004)"><g transform="translate(25.2 36)"><path d="M14.4,7.2c0,3.97645,4.835325,7.2,10.8,7.2v0c5.964675,0,10.8-3.22355,10.8-7.2" fill-opacity="0.16" fill-rule="evenodd"/></g><g transform="translate(0 7.2)"><path d="M14.544151,20.20258C16.206008,16.783657,19.94798,14.4,24.297822,14.4c4.334487,0,8.065388,2.366858,9.735995,5.766412.496268,1.009866-.209924,1.836322-.922271,1.223909-2.20599-1.896516-5.338701-3.080911-8.813724-3.080911-3.366336,0-6.411439,1.111467-8.604037,2.905067-.801671.655788-1.635694-.011931-1.149634-1.011897Z" fill-opacity="0.7" fill-rule="evenodd"/><path d="M66.744151,20.20258C68.406008,16.783657,72.14798,14.4,76.497822,14.4c4.334487,0,8.065388,2.366858,9.735995,5.766412.496268,1.009866-.209924,1.836322-.922271,1.223909-2.20599-1.896516-5.338701-3.080911-8.813724-3.080911-3.366336,0-6.411439,1.111467-8.604037,2.905067-.801671.655788-1.635694-.011931-1.149634-1.011897Z" fill-opacity="0.7" fill-rule="evenodd"/></g><g><path d="M23.435184,5.589111c-5.185384.696005-13.271546,5.215612-12.59535,10.446919.022219.171219.281223.224582.392983.081614c2.237847-2.869342,19.540701-7.084751,25.842024-6.2044.576706.080758.957419-.514513.564104-.886058-3.370035-3.181817-9.558604-4.066163-14.203761-3.438075" transform="matrix(.996195 0.087156-.087156 0.996195 1.03375-2.07679)" fill="#101010" fill-rule="evenodd"/><path d="M76.535184,5.589111c-5.185384.696005-13.271546,5.215612-12.59535,10.446919.022219.171219.281223.224582.392983.081614c2.237847-2.869342,19.540701-7.084751,25.842024-6.2044.576706.080758.957419-.514513.564104-.886058-3.370035-3.181817-9.558604-4.066163-14.203761-3.438075" transform="matrix(-.996195 0.087156 0.087156 0.996195 153.564-6.70476)" fill="#101010" fill-rule="evenodd"/></g><path d="M158.281068,71.639524v33.614609q-5.093123,32.850641-34.633234,43.291542c-29.540111,10.440901-49.912602-10.186247-54.241756-14.770057s-11.20487-18.589898-11.459526-28.266831q-.254656-9.676933-1.078226-33.614602c.491484,1.799186,1.620052-1.685061,2.107306-.000002c8.158568,28.214567,16.16319,45.657122,23.13581,41.874941c11.083569-6.012096,42.084148-5.330044,51.056743,0c8.808721,5.232697,17.711531-7.041782,23.619272-42.129599.109906-.65276,1.386622.669983,1.493611-.000001Z" transform="matrix(1.013125 0 0 1.013125-58.418196-59.462343)" fill="#101010" stroke-width="0.474"/><g transform="translate(1.8 46.8)"><use width="34.008385" height="17.099998" xlink:href="#esNu0m64Ajv6" fill-opacity="0.7" fill-rule="evenodd"/><g transform="translate(0 0.000001)" mask="url(#esNu0m64Ajv59)"><path d="M39.6,1.8h18.9c2.485281,0,4.5,2.014719,4.5,4.5v5.4c0,2.485281-2.014719,4.5-4.5,4.5h-18.9c-2.485281,0-4.5-2.014719-4.5-4.5v-5.4c0-2.485281,2.014719-4.5,4.5-4.5Z" fill="#fff" fill-rule="evenodd"/><g><g transform="translate(34.2 21.6)"><circle r="9.9" transform="translate(9.9 9.9)" fill="#ff4f6d" fill-rule="evenodd"/><circle r="9.9" transform="translate(18.9 9.9)" fill="#ff4f6d" fill-rule="evenodd"/></g></g><mask id="esNu0m64Ajv59" mask-type="luminance"><use width="34.008385" height="17.099998" xlink:href="#esNu0m64Ajv6" fill="#fff" fill-rule="evenodd"/></mask></g></g></g><g transform="translate(0 2)"><g mask="url(#esNu0m64Ajv72)"><g><g transform="translate(43 15)"><use width="105.300026" height="73.800003" xlink:href="#esNu0m64Ajv8" fill="#1f3140" fill-rule="evenodd"/><g mask="url(#esNu0m64Ajv70)"><g><g transform="translate(-43.1-15)"><rect width="239.107" height="252.406" rx="0" ry="0" fill="#101010" fill-rule="evenodd"/></g></g><mask id="esNu0m64Ajv70" mask-type="luminance"><use width="105.300026" height="73.800003" xlink:href="#esNu0m64Ajv8" fill="#fff" fill-rule="evenodd"/></mask></g></g></g><mask id="esNu0m64Ajv72" mask-type="luminance"><use width="237.600006" height="252" xlink:href="#esNu0m64Ajv7" fill="#fff" fill-rule="evenodd"/></mask></g></g></g><mask id="esNu0m64Ajv74" mask-type="luminance"><use width="237.600006" height="252" xlink:href="#esNu0m64Ajv3" fill="#fff" fill-rule="evenodd"/></mask></g></g></g><path d="" fill="none" stroke="#3f5787" stroke-width="0.474"/></svg>